<?xml version="1.0" encoding="UTF-8" standalone="no"?>
<!-- Created with Inkscape (http://www.inkscape.org/) -->

<svg
   width="512"
   height="512"
   viewBox="0 0 512 512"
   version="1.1"
   id="svg5"
   inkscape:version="1.2.2 (732a01da63, 2022-12-09)"
   sodipodi:docname="logo-lc.svg"
   xml:space="preserve"
   inkscape:export-filename="logo-lc.png"
   inkscape:export-xdpi="96"
   inkscape:export-ydpi="96"
   xmlns:inkscape="http://www.inkscape.org/namespaces/inkscape"
   xmlns:sodipodi="http://sodipodi.sourceforge.net/DTD/sodipodi-0.dtd"
   xmlns="http://www.w3.org/2000/svg"
   xmlns:svg="http://www.w3.org/2000/svg"><sodipodi:namedview
     id="namedview7"
     pagecolor="#ffffff"
     bordercolor="#000000"
     borderopacity="0.25"
     inkscape:showpageshadow="2"
     inkscape:pageopacity="0.0"
     inkscape:pagecheckerboard="0"
     inkscape:deskcolor="#d1d1d1"
     inkscape:document-units="px"
     showgrid="false"
     inkscape:zoom="0.5"
     inkscape:cx="519"
     inkscape:cy="250"
     inkscape:window-width="2560"
     inkscape:window-height="1369"
     inkscape:window-x="-8"
     inkscape:window-y="-8"
     inkscape:window-maximized="1"
     inkscape:current-layer="layer1" /><defs
     id="defs2"><clipPath
       clipPathUnits="userSpaceOnUse"
       id="clipPath2529"><circle
         style="opacity:0.2;fill:#000000;fill-opacity:1;stroke:#000000;stroke-width:0;stroke-dasharray:none;stroke-opacity:1"
         id="circle2531"
         cx="256"
         cy="256"
         r="256" /></clipPath></defs><g
     inkscape:label="Calque 1"
     inkscape:groupmode="layer"
     id="layer1"><g
       aria-label="LC"
       id="text968"
       style="font-size:444px;letter-spacing:0px;display:inline;fill:#e6e6e6;stroke:#000000;stroke-width:0"><path
         d="M 32.22406,414.508 V 97.491996 h 39.96 V 378.988 h 138.528 v 35.52 z"
         style="-inkscape-font-specification:sans-serif;stroke:none;fill:#ccffaa"
         id="path975" /><path
         d="m 391.86394,128.128 q -51.06,0 -80.364,34.188 -29.304,34.188 -29.304,93.684 0,59.052 27.084,93.684 27.528,34.188 82.14,34.188 20.424,0 39.072,-3.552 18.648,-3.552 36.852,-8.88 v 34.632 q -17.76,6.66 -36.852,9.768 -18.648,3.108 -44.844,3.108 -48.396,0 -80.808,-19.98 -32.412,-19.98 -48.84,-56.832 -15.984,-36.852 -15.984,-86.58 0,-47.952 17.316,-84.36 17.76,-36.852 51.948,-57.276 34.188,-20.868004 83.028,-20.868004 50.172,0 87.468,18.648004 l -15.984,33.744 q -14.652,-6.66 -32.856,-11.988 -17.76,-5.328 -39.072,-5.328 z"
         style="-inkscape-font-specification:sans-serif;stroke:none;fill:#ccffaa"
         id="path977" /></g></g></svg>
